<svg xmlns="http://www.w3.org/2000/svg" width="1024" height="1024" viewBox="0 0 1024 1024">
  <defs>
    <linearGradient id="bg" x1="0" y1="0" x2="0" y2="1">
      <stop offset="0" stop-color="#1b212a"/>
      <stop offset="1" stop-color="#12161c"/>
    </linearGradient>
  </defs>
  <rect x="48" y="48" width="928" height="928" rx="205" ry="205" fill="url(#bg)"/>
  <rect x="168" y="212.0" width="716" height="86.7" rx="22.5" fill="#21262d" opacity="1.000"/>
  <rect x="96" y="214.6" width="36" height="81.5" rx="18.0" fill="#60a5fa" opacity="1.000"/>
  <rect x="198" y="240.6" width="291.3" height="29.5" rx="14.7" fill="#60a5fa" opacity="1.000"/>
  <rect x="168" y="340.3" width="716" height="86.7" rx="22.5" fill="#21262d" opacity="1.000"/>
  <rect x="96" y="342.9" width="36" height="81.5" rx="18.0" fill="#4ade80" opacity="1.000"/>
  <rect x="198" y="368.9" width="205.2" height="29.5" rx="14.7" fill="#4ade80" opacity="1.000"/>
  <rect x="168" y="468.6" width="716" height="86.7" rx="22.5" fill="#21262d" opacity="1.000"/>
  <rect x="96" y="471.2" width="36" height="81.5" rx="18.0" fill="#ffaa00" opacity="1.000"/>
  <rect x="198" y="497.3" width="344.2" height="29.5" rx="14.7" fill="#ffaa00" opacity="1.000"/>
  <rect x="168" y="597.0" width="716" height="86.7" rx="22.5" fill="#21262d" opacity="1.000"/>
  <rect x="96" y="599.6" width="36" height="81.5" rx="18.0" fill="#f87171" opacity="1.000"/>
  <rect x="198" y="625.6" width="244.9" height="29.5" rx="14.7" fill="#f87171" opacity="1.000"/>
  <rect x="168" y="725.3" width="716" height="86.7" rx="22.5" fill="#21262d" opacity="1.000"/>
  <rect x="96" y="727.9" width="36" height="81.5" rx="18.0" fill="#a78bfa" opacity="1.000"/>
  <rect x="198" y="753.9" width="311.1" height="29.5" rx="14.7" fill="#a78bfa" opacity="1.000"/>
  
</svg>